<svg width="18" height="18" viewBox="0 0 18 18" fill="none" xmlns="http://www.w3.org/2000/svg">
<path fill-rule="evenodd" clip-rule="evenodd" d="M7.19363 11.4051C9.96038 11.4051 12.3251 11.8243 12.3251 13.4991C12.3251 15.1738 9.97613 15.6051 7.19363 15.6051C4.42613 15.6051 2.06213 15.1896 2.06213 13.5141C2.06213 11.8386 4.41038 11.4051 7.19363 11.4051Z" stroke="#7B6F72" stroke-width="1.2" stroke-linecap="round" stroke-linejoin="round"/>
<path fill-rule="evenodd" clip-rule="evenodd" d="M7.19361 9.01485C5.37711 9.01485 3.90411 7.5426 3.90411 5.7261C3.90411 3.9096 5.37711 2.43735 7.19361 2.43735C9.00936 2.43735 10.4824 3.9096 10.4824 5.7261C10.4891 7.53585 9.02661 9.0081 7.21686 9.01485H7.19361Z" stroke="#7B6F72" stroke-width="1.2" stroke-linecap="round" stroke-linejoin="round"/>
<path d="M12.3624 8.16121C13.5631 7.99246 14.4879 6.96196 14.4901 5.71471C14.4901 4.48546 13.5939 3.46546 12.4186 3.27271" stroke="#7B6F72" stroke-width="1.2" stroke-linecap="round" stroke-linejoin="round"/>
<path d="M13.9465 11.0491C15.1098 11.2224 15.922 11.6304 15.922 12.4704C15.922 13.0486 15.5395 13.4236 14.9215 13.6584" stroke="#7B6F72" stroke-width="1.2" stroke-linecap="round" stroke-linejoin="round"/>
</svg>
