<svg width="18" height="18" viewBox="0 0 18 18" fill="none" xmlns="http://www.w3.org/2000/svg">
<g clip-path="url(#clip0_1_1160)">
<path d="M1.58203 0.5H16.418C17.0141 0.5 17.5 0.985859 17.5 1.58203V16.418C17.5 17.0141 17.0141 17.5 16.418 17.5H1.58203C0.985859 17.5 0.5 17.0141 0.5 16.418V1.58203C0.5 0.985859 0.985859 0.5 1.58203 0.5ZM16.418 17.4453C16.9848 17.4453 17.4453 16.9848 17.4453 16.418V1.58203C17.4453 1.01516 16.9848 0.554688 16.418 0.554688H1.58203C1.01516 0.554688 0.554688 1.01516 0.554688 1.58203V16.418C0.554688 16.9848 1.01516 17.4453 1.58203 17.4453H16.418Z" stroke="#7B6F72"/>
<path d="M15.2877 4.55411C15.3075 4.69267 15.2714 4.83344 15.1872 4.94536L12.4034 8.64885C12.2286 8.88149 11.8983 8.92859 11.6656 8.75391C10.8907 8.17287 9.96899 7.86566 9.00013 7.86566C8.03114 7.86566 7.10952 8.17287 6.33471 8.75391M15.2877 4.55411L5.99633 8.34834L3.21273 4.64512C3.20837 4.63931 3.20637 4.6318 3.20744 4.62427L2.71238 4.55411M15.2877 4.55411C15.2681 4.41568 15.1941 4.29057 15.0822 4.20653M15.2877 4.55411L5.59671 8.64885M6.33471 8.75391L6.03481 8.35384M6.33471 8.75391C6.23982 8.82504 6.12872 8.85938 6.01872 8.85938C5.85859 8.85938 5.70039 8.78673 5.59671 8.64885M6.33471 8.75391L6.03474 8.35389L5.59671 8.64885M6.03481 8.35384C6.89616 7.70792 7.92302 7.36566 9.00013 7.36566C10.0771 7.36566 11.1042 7.70793 11.9655 8.35389L11.9657 8.35399C11.9775 8.36288 11.9946 8.36062 12.0037 8.34847L12.0037 8.34842L14.7875 4.64493L14.7876 4.64481C14.7919 4.63912 14.7938 4.63193 14.7928 4.62475L14.7927 4.62434C14.7917 4.61751 14.788 4.61088 14.7819 4.60635L15.0822 4.20653M6.03481 8.35384C6.03165 8.3562 6.02904 8.35741 6.02684 8.35813C6.02446 8.35891 6.02173 8.35938 6.01872 8.35938C6.01404 8.35938 6.00952 8.35827 6.00585 8.35648C6.00273 8.35495 5.99962 8.3527 5.99639 8.34842L6.03481 8.35384ZM15.0822 4.20653L14.7822 4.60654C13.1008 3.34555 11.1029 2.67969 9.00013 2.67969C6.89741 2.67969 4.89949 3.34555 3.21809 4.60654L2.9181 4.20653M15.0822 4.20653C13.3142 2.88062 11.211 2.17969 9.00013 2.17969C6.78927 2.17969 4.68608 2.88062 2.9181 4.20653M2.9181 4.20653L3.21834 4.60635C3.21224 4.61093 3.20839 4.61758 3.20737 4.62475L2.71238 4.55411M2.9181 4.20653C2.80618 4.29057 2.73216 4.41554 2.71238 4.55411M2.71238 4.55411C2.69275 4.69267 2.72886 4.83344 2.81291 4.94536L5.59671 8.64885M11.6011 8.04028L11.9887 8.27749L12.2618 7.91422L14.4177 5.04597L14.736 4.62243L14.2948 4.32914C12.7226 3.28413 10.9022 2.73438 9.00013 2.73438C7.09809 2.73438 5.27771 3.28413 3.70549 4.32914L3.26423 4.62243L3.58258 5.04597L5.73851 7.91422L6.01156 8.27749L6.39919 8.04028C7.04542 7.64481 7.76488 7.40543 8.51987 7.33402L8.97279 7.29119V6.83624V5.22894C8.97279 5.21381 8.985 5.2016 9.00013 5.2016C9.01527 5.2016 9.02748 5.21381 9.02748 5.22894V6.83624V7.29119L9.4804 7.33402C10.2354 7.40543 10.9549 7.64481 11.6011 8.04028Z" stroke="#7B6F72"/>
</g>
<defs>
<clipPath id="clip0_1_1160">
<rect width="18" height="18" fill="white"/>
</clipPath>
</defs>
</svg>
